<svg width="30" height="30" viewBox="0 0 30 30" fill="none" xmlns="http://www.w3.org/2000/svg">
<path d="M24.1562 11.8354C24.1562 11.8354 23.4775 20.2542 23.0837 23.8004C22.8962 25.4942 21.85 26.4867 20.1362 26.5179C16.875 26.5767 13.61 26.5804 10.35 26.5117C8.70123 26.4779 7.67248 25.4729 7.48873 23.8092C7.09248 20.2317 6.41748 11.8354 6.41748 11.8354" stroke="#5F5F75" stroke-width="1.5" stroke-linecap="round" stroke-linejoin="round"/>
<path d="M25.8852 7.7998H4.68774" stroke="#5F5F75" stroke-width="1.5" stroke-linecap="round" stroke-linejoin="round"/>
<path d="M21.8007 7.79973C20.8195 7.79973 19.9745 7.10598 19.782 6.14473L19.4782 4.62473C19.2907 3.92348 18.6557 3.43848 17.932 3.43848H12.6407C11.917 3.43848 11.282 3.92348 11.0945 4.62473L10.7907 6.14473C10.5982 7.10598 9.75322 7.79973 8.77197 7.79973" stroke="#5F5F75" stroke-width="1.5" stroke-linecap="round" stroke-linejoin="round"/>
</svg>
