<svg width="20" height="20" viewBox="0 0 20 20" fill="none" xmlns="http://www.w3.org/2000/svg">
<path d="M10 20C15.5228 20 20 15.5228 20 10C20 4.47715 15.5228 0 10 0C4.47715 0 0 4.47715 0 10C0 15.5228 4.47715 20 10 20Z" fill="#3D5CFF"/>
<path d="M10 19.5C15.2467 19.5 19.5 15.2467 19.5 10C19.5 4.75329 15.2467 0.5 10 0.5C4.75329 0.5 0.5 4.75329 0.5 10C0.5 15.2467 4.75329 19.5 10 19.5Z" stroke="white"/>
<path d="M13.542 14.165H6.45799C6.18198 14.1648 5.91735 14.055 5.72219 13.8598C5.52702 13.6647 5.41726 13.4 5.41699 13.124V8.12404C5.41699 7.84786 5.52664 7.58297 5.72183 7.38759C5.91703 7.1922 6.18181 7.08231 6.45799 7.08204H7.86799L8.37799 6.06204C8.41233 5.99257 8.46551 5.93416 8.53147 5.89349C8.59743 5.85282 8.6735 5.83152 8.75099 5.83204H11.251C11.3284 5.83187 11.4043 5.85331 11.4702 5.89395C11.5361 5.93458 11.5894 5.99279 11.624 6.06204L12.133 7.08204H13.542C13.8182 7.08204 14.0831 7.19168 14.2784 7.38688C14.4738 7.58208 14.5837 7.84686 14.584 8.12304V13.123C14.584 13.3994 14.4742 13.6644 14.2788 13.8598C14.0834 14.0553 13.8183 14.165 13.542 14.165ZM10.001 8.54004C9.58873 8.53964 9.18561 8.66153 8.84264 8.89029C8.49966 9.11904 8.23224 9.44438 8.0742 9.82514C7.91616 10.2059 7.87461 10.625 7.95479 11.0294C8.03498 11.4338 8.2333 11.8053 8.52467 12.0969C8.81605 12.3886 9.18738 12.5873 9.59169 12.6678C9.996 12.7484 10.4151 12.7073 10.796 12.5496C11.177 12.3919 11.5026 12.1248 11.7316 11.7821C11.9607 11.4393 12.083 11.0363 12.083 10.624C12.0825 10.0718 11.863 9.54237 11.4727 9.15172C11.0824 8.76107 10.5532 8.5411 10.001 8.54004Z" fill="white"/>
</svg>
