<svg width="12" height="12" viewBox="0 0 12 12" fill="none" xmlns="http://www.w3.org/2000/svg">
<path d="M6 11.5C4.91221 11.5 3.84884 11.1774 2.94437 10.5731C2.0399 9.96874 1.33495 9.10975 0.918665 8.10476C0.502383 7.09977 0.393465 5.9939 0.605683 4.92701C0.817902 3.86011 1.34173 2.8801 2.11092 2.11092C2.8801 1.34173 3.86011 0.817902 4.92701 0.605683C5.9939 0.393465 7.09977 0.502383 8.10476 0.918665C9.10975 1.33495 9.96874 2.0399 10.5731 2.94437C11.1774 3.84884 11.5 4.91221 11.5 6C11.4984 7.45821 10.9184 8.85623 9.88734 9.88734C8.85623 10.9184 7.45821 11.4984 6 11.5ZM6 2.5C5.86739 2.5 5.74022 2.55268 5.64645 2.64645C5.55268 2.74022 5.5 2.86739 5.5 3V6C5.49989 6.06571 5.51272 6.13079 5.53777 6.19153C5.56282 6.25227 5.5996 6.30748 5.646 6.354L7.766 8.474C7.81213 8.52176 7.8673 8.55985 7.9283 8.58605C7.9893 8.61226 8.05491 8.62605 8.1213 8.62663C8.18769 8.6272 8.25353 8.61455 8.31498 8.58941C8.37643 8.56427 8.43225 8.52715 8.4792 8.4802C8.52615 8.43325 8.56327 8.37743 8.58841 8.31598C8.61355 8.25453 8.62621 8.18869 8.62563 8.1223C8.62505 8.05591 8.61126 7.9903 8.58505 7.9293C8.55885 7.8683 8.52076 7.81313 8.473 7.767L6.5 5.795V3C6.5 2.86739 6.44732 2.74022 6.35356 2.64645C6.25979 2.55268 6.13261 2.5 6 2.5Z" fill="#B8B8D2"/>
</svg>
