<svg width="20" height="20" viewBox="0 0 20 20" fill="none" xmlns="http://www.w3.org/2000/svg">
    <path
        d="M19 20H14.5C14.2348 20 13.9804 19.8946 13.7929 19.7071C13.6054 19.5196 13.5 19.2652 13.5 19C13.5 18.7348 13.6054 18.4804 13.7929 18.2929C13.9804 18.1054 14.2348 18 14.5 18H18V14.5C18 14.2348 18.1054 13.9804 18.2929 13.7929C18.4804 13.6054 18.7348 13.5 19 13.5C19.2652 13.5 19.5196 13.6054 19.7071 13.7929C19.8946 13.9804 20 14.2348 20 14.5V19C20 19.2652 19.8946 19.5196 19.7071 19.7071C19.5196 19.8946 19.2652 20 19 20ZM5.5 20H1C0.734784 20 0.48043 19.8946 0.292893 19.7071C0.105357 19.5196 0 19.2652 0 19V14.5C0 14.2348 0.105357 13.9804 0.292893 13.7929C0.48043 13.6054 0.734784 13.5 1 13.5C1.26522 13.5 1.51957 13.6054 1.70711 13.7929C1.89464 13.9804 2 14.2348 2 14.5V18H5.5C5.76522 18 6.01957 18.1054 6.20711 18.2929C6.39464 18.4804 6.5 18.7348 6.5 19C6.5 19.2652 6.39464 19.5196 6.20711 19.7071C6.01957 19.8946 5.76522 20 5.5 20ZM19 6.5C18.7348 6.5 18.4804 6.39464 18.2929 6.20711C18.1054 6.01957 18 5.76522 18 5.5V2H14.5C14.2348 2 13.9804 1.89464 13.7929 1.70711C13.6054 1.51957 13.5 1.26522 13.5 1C13.5 0.734784 13.6054 0.48043 13.7929 0.292893C13.9804 0.105357 14.2348 0 14.5 0L19 0C19.2652 0 19.5196 0.105357 19.7071 0.292893C19.8946 0.48043 20 0.734784 20 1V5.5C20 5.76522 19.8946 6.01957 19.7071 6.20711C19.5196 6.39464 19.2652 6.5 19 6.5ZM1 6.5C0.734784 6.5 0.48043 6.39464 0.292893 6.20711C0.105357 6.01957 0 5.76522 0 5.5V1C0 0.734784 0.105357 0.48043 0.292893 0.292893C0.48043 0.105357 0.734784 0 1 0L5.5 0C5.76522 0 6.01957 0.105357 6.20711 0.292893C6.39464 0.48043 6.5 0.734784 6.5 1C6.5 1.26522 6.39464 1.51957 6.20711 1.70711C6.01957 1.89464 5.76522 2 5.5 2H2V5.5C2 5.76522 1.89464 6.01957 1.70711 6.20711C1.51957 6.39464 1.26522 6.5 1 6.5Z"
        fill="white" />
</svg>
