<svg width="18" height="19" viewBox="0 0 18 19" fill="none" xmlns="http://www.w3.org/2000/svg">
<path d="M10.2 0.495703L17.2 5.7457C17.4484 5.932 17.65 6.17356 17.7889 6.45128C17.9277 6.72899 18 7.03521 18 7.3457V16.8457C18 17.3761 17.7893 17.8848 17.4142 18.2599C17.0391 18.635 16.5304 18.8457 16 18.8457H2C1.46957 18.8457 0.960859 18.635 0.585786 18.2599C0.210714 17.8848 0 17.3761 0 16.8457V7.3457C0 7.03521 0.0722902 6.72899 0.211146 6.45128C0.350001 6.17356 0.551608 5.932 0.8 5.7457L7.8 0.495703C8.14619 0.236059 8.56726 0.0957031 9 0.0957031C9.43274 0.0957031 9.85381 0.236059 10.2 0.495703Z" fill="#F4F3FD"/>
</svg>
