<svg width="161" height="160" viewBox="0 0 161 160" fill="none" xmlns="http://www.w3.org/2000/svg">
<path d="M152.363 125.865V126.102H8.63672V125.865H152.363Z" fill="#DADAF7"/>
<path opacity="0.998" d="M67.0028 126.008C64.2606 126.001 61.6326 124.909 59.6936 122.97C57.7547 121.031 56.6624 118.403 56.6558 115.66L56.6318 44.4843C56.6387 41.7422 57.731 39.1144 59.67 37.1754C61.6089 35.2365 64.2368 34.1441 66.9788 34.1373L114.951 34.1133C117.693 34.1201 120.321 35.2125 122.26 37.1514C124.199 39.0904 125.291 41.7182 125.298 44.4603L125.322 115.636C125.311 118.377 124.218 121.003 122.28 122.941C120.342 124.88 117.716 125.973 114.975 125.984L67.0028 126.008Z" fill="#F4F3FD"/>
<path d="M73.4439 51.8963C73.0736 51.8864 72.7219 51.7325 72.4635 51.4671C72.2051 51.2018 72.0605 50.8461 72.0605 50.4757C72.0605 50.1054 72.2051 49.7497 72.4635 49.4844C72.7219 49.219 73.0736 49.0651 73.4439 49.0553L108.487 49.0312C108.857 49.0411 109.209 49.195 109.467 49.4604C109.726 49.7257 109.87 50.0814 109.87 50.4518C109.87 50.8221 109.726 51.1778 109.467 51.4431C109.209 51.7085 108.857 51.8624 108.487 51.8723L73.4439 51.8963Z" fill="#DADAF7"/>
<path d="M73.4439 65.7947C73.0736 65.7849 72.7219 65.6309 72.4635 65.3656C72.2051 65.1002 72.0605 64.7445 72.0605 64.3742C72.0605 64.0038 72.2051 63.6481 72.4635 63.3828C72.7219 63.1175 73.0736 62.9635 73.4439 62.9537L108.487 62.9297C108.857 62.9395 109.209 63.0935 109.467 63.3588C109.726 63.6241 109.87 63.9798 109.87 64.3502C109.87 64.7205 109.726 65.0762 109.467 65.3416C109.209 65.6069 108.857 65.7609 108.487 65.7707L73.4439 65.7947Z" fill="#DADAF7"/>
<path d="M73.4439 79.6951C73.0736 79.6853 72.7219 79.5313 72.4635 79.266C72.2051 79.0006 72.0605 78.6449 72.0605 78.2746C72.0605 77.9042 72.2051 77.5485 72.4635 77.2832C72.7219 77.0179 73.0736 76.8639 73.4439 76.8541L108.487 76.8301C108.857 76.8399 109.209 76.9939 109.467 77.2592C109.726 77.5245 109.87 77.8802 109.87 78.2506C109.87 78.6209 109.726 78.9766 109.467 79.242C109.209 79.5073 108.857 79.6613 108.487 79.6711L73.4439 79.6951Z" fill="#DADAF7"/>
<path d="M73.444 93.5701C73.2543 93.5751 73.0655 93.5421 72.8888 93.473C72.712 93.4038 72.5509 93.3 72.415 93.1676C72.279 93.0352 72.1709 92.8769 72.0972 92.7021C72.0234 92.5272 71.9854 92.3394 71.9854 92.1496C71.9854 91.9598 72.0234 91.7719 72.0972 91.5971C72.1709 91.4222 72.279 91.2639 72.415 91.1315C72.5509 90.9991 72.712 90.8953 72.8888 90.8262C73.0655 90.7571 73.2543 90.724 73.444 90.7291L108.487 90.7051C108.857 90.7149 109.209 90.8689 109.467 91.1342C109.726 91.3995 109.87 91.7552 109.87 92.1256C109.87 92.4959 109.726 92.8516 109.467 93.117C109.209 93.3823 108.857 93.5363 108.487 93.5461L73.444 93.5701Z" fill="#DADAF7"/>
<path opacity="0.533" d="M61.9835 126.008C60.6385 126.005 59.3172 125.654 58.1475 124.99C58.4846 125.328 58.8879 125.593 59.3319 125.768C59.776 125.943 60.2514 126.025 60.7285 126.008H61.9835Z" fill="#EAEAFF"/>
<path d="M129.607 108.463H110.407L71.572 108.487C71.88 109.806 72.031 111.157 72.022 112.512C72.022 119.971 67.522 126.012 61.959 126.012L120.326 125.988C120.815 125.987 121.301 125.915 121.77 125.775C126.482 124.635 130.059 119.118 130.059 112.488C130.056 111.134 129.904 109.784 129.607 108.463V108.463Z" fill="#EAEAFF"/>
<path d="M143.579 103.49C151.937 103.49 155.179 94.7287 148.479 90.6797C147.263 89.9607 145.855 89.6361 144.447 89.7505C143.039 89.8649 141.702 90.4128 140.618 91.3187C140.618 91.3187 140.619 83.7897 131.785 83.9297C122.931 84.0737 123.973 93.4977 123.973 93.4977C123.973 93.4977 119.38 93.6397 118.835 97.7357C118.196 102.282 123.855 103.49 126.815 103.49H143.579Z" fill="#EAEAFF"/>
<path d="M30.7997 51.421C23.2937 51.421 20.4047 43.584 26.3997 39.961C27.4862 39.3156 28.7464 39.0235 30.0061 39.1253C31.2658 39.227 32.4628 39.7175 33.4317 40.529C33.4317 40.529 33.4037 33.781 41.3367 33.898C49.2697 34.015 48.3457 42.469 48.3457 42.469C48.3457 42.469 52.4457 42.611 52.9627 46.257C53.5307 50.33 48.4397 51.419 45.8117 51.419L30.7997 51.421Z" fill="#EAEAFF"/>
<path d="M36.6484 102.328L48.9614 107.064L40.9104 126.006H36.6484L30.7764 117.008L36.6484 102.328Z" fill="#F9ACC0"/>
<path d="M88.0298 102.328L75.7168 107.064L83.7678 126.006H88.0298L93.9018 116.985L88.0298 102.328Z" fill="#F9ACC0"/>
<path d="M44.933 109.906L33.333 104.46C33.333 104.46 34.233 103.138 35.819 101.216C38.968 97.4508 44.793 91.4158 51.541 89.0688C61.723 85.5168 70.01 88.1218 76.167 90.7258C80.287 92.4548 91.558 105.406 91.558 105.406L79.719 109.906L84.719 126.006H39.963L44.933 109.906Z" fill="#3D5CFF"/>
<path d="M70.2474 70.3633C70.0824 66.3143 66.6964 63.0233 62.6704 63.7363C57.5054 64.6563 52.0154 66.3363 50.1214 70.3633C48.7954 73.1813 50.0974 78.7923 53.1994 81.0183C58.1714 84.5703 59.8294 82.4393 59.8294 82.4393L66.2224 78.6513C67.5451 77.7284 68.6095 76.4822 69.3141 75.0314C70.0187 73.5806 70.34 71.9735 70.2474 70.3633Z" fill="#1F1F39"/>
<path d="M52.4861 75.5715C50.5951 76.7555 52.0161 79.8305 53.6731 80.5445C54.3896 80.9566 55.2212 81.1231 56.0411 81.0185V89.0695C57.5951 89.79 59.303 90.1153 61.0131 90.0165C62.498 89.9036 63.9463 89.5007 65.2761 88.8305L64.5661 83.1475C65.5254 82.7076 66.3434 82.0097 66.9288 81.1317C67.5142 80.2536 67.8439 79.2301 67.8811 78.1755C67.9414 76.3339 67.7013 74.4948 67.1701 72.7305L57.6991 74.6245C57.8473 75.4068 57.8473 76.2101 57.6991 76.9925C57.6441 77.6782 57.3969 78.3346 56.9861 78.8865C56.9861 78.8865 57.2231 76.7555 56.0391 76.0455C55.5807 75.5879 54.9847 75.2936 54.3427 75.208C53.7007 75.1223 53.0484 75.25 52.4861 75.5715Z" fill="#F9D2DD"/>
<path d="M44.8882 110.025C44.8737 110.021 44.8602 110.014 44.8486 110.005C44.837 109.996 44.8275 109.984 44.8208 109.97C44.814 109.957 44.8103 109.942 44.8097 109.927C44.809 109.912 44.8116 109.897 44.8172 109.883L48.3692 100.175C48.3732 100.161 48.38 100.148 48.3893 100.137C48.3985 100.125 48.4101 100.116 48.4232 100.109C48.4362 100.103 48.4505 100.099 48.4652 100.098C48.4798 100.097 48.4945 100.099 48.5082 100.104C48.5227 100.108 48.5363 100.115 48.5479 100.125C48.5595 100.134 48.569 100.146 48.5757 100.159C48.5824 100.173 48.5862 100.187 48.5868 100.202C48.5874 100.217 48.5848 100.232 48.5792 100.246L45.0302 109.954C45.0302 110.001 44.9832 110.025 44.9352 110.025H44.8882Z" fill="#DADAF7"/>
<path d="M35.1122 106.164C33.7622 103.891 29.0032 92.7858 29.0032 92.7858C29.0032 92.7858 27.7722 88.2628 25.0962 87.6478C23.5398 87.3588 22.0671 86.728 20.7842 85.8008C19.7662 85.1848 18.7242 84.9718 18.1122 85.5878C17.832 85.8858 17.659 86.2686 17.6204 86.6758C17.5818 87.083 17.6799 87.4915 17.8992 87.8368C18.1302 88.3244 18.4782 88.7472 18.9122 89.0678C18.9122 89.0678 10.6972 88.8548 9.67915 89.6838C8.66115 90.5128 8.04515 92.7618 11.9282 93.9928C14.7519 94.7521 17.6713 95.095 20.5942 95.0108C20.7832 95.4108 26.4192 115.587 28.1242 120.062C29.8532 124.537 33.2862 126.262 36.1242 126.005C39.0132 125.768 42.5411 123.614 41.1441 118.025C41.1471 118.027 37.0042 109.337 35.1122 106.164Z" fill="#F9D2DD"/>
<path d="M79.6246 109.954L76.0726 100.246C76.0659 100.232 76.0624 100.217 76.0625 100.202C76.0626 100.186 76.0662 100.171 76.0731 100.157C76.0799 100.144 76.0899 100.132 76.1021 100.122C76.1143 100.113 76.1285 100.107 76.1436 100.104C76.1574 100.097 76.1726 100.094 76.1879 100.094C76.2033 100.094 76.2184 100.097 76.2321 100.104C76.2459 100.111 76.2578 100.121 76.2671 100.133C76.2764 100.146 76.2827 100.16 76.2856 100.175L79.8376 109.883C79.8443 109.897 79.8477 109.912 79.8475 109.928C79.8472 109.943 79.8433 109.959 79.8361 109.972C79.829 109.986 79.8187 109.998 79.8061 110.007C79.7935 110.016 79.7789 110.022 79.7636 110.025H79.7426C79.7183 110.025 79.6943 110.019 79.6734 110.006C79.6526 109.994 79.6357 109.976 79.6246 109.954Z" fill="#DADAF7"/>
<path d="M89.5216 106.117C90.8716 103.844 95.6306 92.7389 95.6306 92.7389C95.6306 92.7389 96.8616 88.2159 99.5376 87.6009C101.093 87.3117 102.565 86.6809 103.848 85.7539C104.866 85.1379 105.908 84.9249 106.524 85.5409C106.804 85.8389 106.977 86.2217 107.015 86.6289C107.054 87.0361 106.956 87.4446 106.737 87.7899C106.504 88.278 106.154 88.701 105.719 89.0209C105.719 89.0209 113.935 88.8079 114.953 89.6369C115.971 90.4659 116.586 92.7149 112.702 93.9459C109.878 94.7093 106.959 95.0603 104.036 94.9879C103.847 95.3879 98.2356 115.564 96.5056 120.039C94.7756 124.514 91.3436 126.239 88.5056 125.982C85.6646 125.745 82.1366 123.591 83.5056 118.002C83.5076 118.003 87.6276 109.314 89.5216 106.117Z" fill="#F9D2DD"/>
<path d="M11.2894 93.8984C10.9604 93.809 10.6654 93.6238 10.4419 93.3663C10.2185 93.1088 10.0766 92.7907 10.0344 92.4524C9.99069 92.0564 10.0584 91.6561 10.23 91.2965C10.4015 90.937 10.6701 90.6325 11.0054 90.4174C12.2134 89.7074 23.0334 90.0174 23.5054 90.0384C23.5205 90.038 23.5356 90.0406 23.5497 90.0462C23.5637 90.0518 23.5765 90.0601 23.5873 90.0708C23.598 90.0815 23.6065 90.0942 23.6122 90.1082C23.6179 90.1222 23.6207 90.1372 23.6204 90.1524C23.6183 90.183 23.6052 90.2118 23.5835 90.2335C23.5618 90.2552 23.533 90.2683 23.5024 90.2704C19.6204 90.1524 12.0464 90.0624 11.1474 90.6074C10.8515 90.7994 10.6136 91.0685 10.4593 91.3857C10.3049 91.7028 10.24 92.0561 10.2714 92.4074C10.3028 92.7027 10.424 92.9813 10.6187 93.2056C10.8135 93.4299 11.0724 93.5889 11.3604 93.6614C11.3749 93.6652 11.3884 93.6722 11.4 93.6816C11.4117 93.6911 11.4212 93.703 11.4279 93.7164C11.4346 93.7298 11.4384 93.7445 11.439 93.7595C11.4396 93.7745 11.437 93.7895 11.4314 93.8034C11.4255 93.8303 11.4106 93.8544 11.3891 93.8716C11.3677 93.8889 11.3409 93.8983 11.3134 93.8984H11.2894Z" fill="white"/>
<path d="M13.136 94.4197C12.9271 94.364 12.7402 94.2457 12.6006 94.0807C12.461 93.9157 12.3753 93.7119 12.355 93.4967C12.3253 93.2471 12.3674 92.9942 12.4763 92.7676C12.5852 92.5411 12.7565 92.3503 12.97 92.2177C13.68 91.7917 19.789 91.9577 20.5 91.9807C20.5158 91.9798 20.5316 91.9823 20.5464 91.9879C20.5612 91.9936 20.5746 92.0024 20.5857 92.0136C20.5969 92.0249 20.6055 92.0384 20.6111 92.0532C20.6166 92.068 20.619 92.0839 20.618 92.0997C20.6159 92.1303 20.6027 92.1591 20.5811 92.1808C20.5594 92.2025 20.5306 92.2156 20.5 92.2177C17.801 92.1227 13.61 92.1227 13.112 92.4077C12.9424 92.5201 12.8064 92.6763 12.7184 92.8598C12.6303 93.0432 12.5936 93.247 12.612 93.4497C12.6282 93.6173 12.6962 93.7758 12.8066 93.903C12.917 94.0302 13.0643 94.1199 13.228 94.1597C13.2425 94.1635 13.256 94.1704 13.2676 94.1799C13.2792 94.1894 13.2887 94.2013 13.2954 94.2147C13.3021 94.2281 13.3059 94.2428 13.3065 94.2578C13.3071 94.2728 13.3046 94.2877 13.299 94.3017C13.252 94.3967 13.204 94.4197 13.157 94.4197H13.136Z" fill="white"/>
<path d="M18.8662 89.2118C18.8355 89.2097 18.8065 89.1964 18.7848 89.1745C18.7631 89.1526 18.7501 89.1236 18.7482 89.0928C18.7473 89.0771 18.7498 89.0613 18.7554 89.0466C18.7611 89.0319 18.7697 89.0185 18.7809 89.0074C18.792 88.9963 18.8053 88.9876 18.8201 88.982C18.8348 88.9764 18.8505 88.9739 18.8662 88.9748L23.1052 89.2118C23.1358 89.2139 23.1646 89.227 23.1863 89.2487C23.208 89.2704 23.2211 89.2992 23.2232 89.3298C23.2482 89.3748 23.1992 89.4488 23.1282 89.4488L18.8662 89.2118Z" fill="white"/>
<path d="M113.105 93.7819C113.097 93.7537 113.099 93.7231 113.112 93.6967C113.126 93.6703 113.149 93.6499 113.176 93.6399C113.465 93.5674 113.724 93.4082 113.918 93.1837C114.113 92.9593 114.234 92.6804 114.265 92.3849C114.31 92.0322 114.251 91.6742 114.095 91.3545C113.94 91.0349 113.694 90.7674 113.389 90.5849C112.466 90.0409 104.889 90.1349 101.029 90.2539C101.014 90.2548 100.998 90.2523 100.983 90.2466C100.968 90.2409 100.955 90.2322 100.944 90.221C100.932 90.2097 100.924 90.1962 100.918 90.1814C100.913 90.1666 100.91 90.1507 100.911 90.1349C100.91 90.1192 100.913 90.1035 100.919 90.0888C100.924 90.074 100.933 90.0607 100.944 90.0495C100.955 90.0384 100.968 90.0298 100.983 90.0241C100.998 90.0185 101.014 90.016 101.029 90.0169C101.479 89.9929 112.324 89.6619 113.531 90.3959C113.867 90.6111 114.135 90.9158 114.307 91.2755C114.479 91.6353 114.546 92.0358 114.502 92.4319C114.463 92.7712 114.323 93.0907 114.099 93.3485C113.875 93.6062 113.578 93.7901 113.247 93.8759H113.223C113.196 93.8759 113.169 93.8666 113.148 93.8496C113.126 93.8325 113.111 93.8086 113.105 93.7819Z" fill="white"/>
<path d="M111.259 94.3013C111.25 94.273 111.253 94.2425 111.266 94.2161C111.279 94.1896 111.302 94.1693 111.33 94.1593C111.491 94.1158 111.636 94.0248 111.745 93.8983C111.854 93.7717 111.923 93.6153 111.942 93.4493C111.96 93.2466 111.923 93.0428 111.835 92.8594C111.747 92.6759 111.611 92.5197 111.442 92.4073C110.951 92.0993 106.76 92.1213 104.06 92.2213C104.044 92.2222 104.028 92.2197 104.013 92.2138C103.998 92.2079 103.984 92.1989 103.973 92.1873C103.962 92.1757 103.953 92.1619 103.948 92.1467C103.942 92.1315 103.94 92.1153 103.942 92.0993C103.941 92.0836 103.943 92.0678 103.949 92.0531C103.955 92.0384 103.963 92.025 103.975 92.0139C103.986 92.0028 103.999 91.9941 104.014 91.9885C104.028 91.9829 104.044 91.9804 104.06 91.9813C104.747 91.9573 110.856 91.7683 111.59 92.2213C111.8 92.3576 111.968 92.549 112.077 92.7745C112.186 93.0001 112.23 93.2511 112.206 93.5003C112.186 93.7155 112.1 93.9193 111.96 94.0843C111.821 94.2494 111.634 94.3676 111.425 94.4233C111.401 94.3993 111.401 94.3993 111.378 94.3993C111.35 94.3993 111.322 94.3896 111.301 94.3717C111.279 94.3538 111.264 94.3289 111.259 94.3013Z" fill="white"/>
<path d="M101.29 89.2829C101.289 89.2672 101.292 89.2515 101.297 89.2367C101.303 89.222 101.312 89.2087 101.323 89.1975C101.334 89.1864 101.347 89.1777 101.362 89.1721C101.377 89.1665 101.393 89.164 101.408 89.1649L105.647 88.9279C105.663 88.927 105.679 88.9295 105.693 88.9351C105.708 88.9407 105.721 88.9494 105.733 88.9605C105.744 88.9717 105.752 88.985 105.758 88.9997C105.764 89.0145 105.766 89.0302 105.765 89.0459C105.766 89.0616 105.764 89.0774 105.758 89.0921C105.752 89.1068 105.744 89.1201 105.733 89.1313C105.721 89.1424 105.708 89.1511 105.693 89.1567C105.679 89.1623 105.663 89.1648 105.647 89.1639L101.408 89.4019C101.392 89.4028 101.377 89.4003 101.362 89.3946C101.347 89.3889 101.334 89.3802 101.323 89.3689C101.311 89.3577 101.303 89.3442 101.297 89.3294C101.292 89.3145 101.289 89.2987 101.29 89.2829Z" fill="white"/>
<path d="M64.8255 83.0294C64.7545 83.0534 64.7115 83.0774 64.6365 83.1004C62.7492 83.7954 60.6692 83.7533 58.8115 82.9824C60.4287 84.8135 62.598 86.0684 64.9915 86.5574L64.5655 83.1484C64.5655 83.1484 64.6595 83.1004 64.8255 83.0294Z" fill="#F9ACC0"/>
</svg>
