<svg width="161" height="160" viewBox="0 0 161 160" fill="none" xmlns="http://www.w3.org/2000/svg">
<path d="M101.814 24.7077L106.839 32.896L35.3215 76.782L30.2969 68.5938L101.814 24.7077Z" fill="#F4F3FD"/>
<path d="M37.2682 75.5833L37.1322 64.4062L33.7402 66.4783L33.8312 74.3783L35.3112 76.7913L37.2682 75.5833Z" fill="#DADAF7"/>
<path d="M44.4399 59.9219L41.0479 61.9939L41.1849 73.1939L44.5769 71.0999L44.4399 59.9219Z" fill="#DADAF7"/>
<path d="M51.474 55.5957L48.082 57.6677L48.241 68.8677L51.633 66.7737L51.474 55.5957Z" fill="#DADAF7"/>
<path d="M58.7816 51.1113L55.3896 53.1833L55.5266 64.3833L58.9186 62.2893L58.7816 51.1113Z" fill="#DADAF7"/>
<path d="M66.3393 46.4688L62.9473 48.5408L63.1063 59.7408L66.4983 57.6687L66.3393 46.4688Z" fill="#DADAF7"/>
<path d="M73.6459 41.9824L70.2539 44.0764L70.4129 55.2544L73.8049 53.1824L73.6459 41.9824Z" fill="#DADAF7"/>
<path d="M80.6801 37.6582L77.2881 39.7522L77.4471 50.9302L80.8391 48.8582L80.6801 37.6582Z" fill="#DADAF7"/>
<path d="M88.2846 33.0137L84.8926 35.0857L85.0516 46.2627L88.4436 44.1907L88.2846 33.0137Z" fill="#DADAF7"/>
<path d="M95.5912 28.5293L92.1992 30.6013L92.3362 41.8013L95.7282 39.7073L95.5912 28.5293Z" fill="#DADAF7"/>
<path d="M102.648 26.0941L101.805 24.7051L99.2334 26.2761L99.3924 37.4761L102.784 35.3821L102.648 26.0941Z" fill="#DADAF7"/>
<path d="M62.243 78.1329L54.207 73.1929C54.207 73.1929 60.49 63.8369 67.456 59.9449C73.4569 56.6235 80.4172 55.4661 87.17 56.6669C92.8948 57.6494 98.0876 60.6248 101.83 65.0669C104.649 68.8607 107.248 72.8128 109.615 76.9039L98.302 78.4979L101.902 89.4479L59.944 89.1739L62.243 78.1329Z" fill="#3D5CFF"/>
<path d="M65.8848 40.1849C64.8148 36.4519 66.8848 32.3999 70.7788 31.8299C75.7648 31.0789 81.2968 30.9649 84.2328 34.0379C86.3048 36.2009 86.8328 41.7099 84.6878 44.6919C81.2278 49.4499 79.0878 48.0159 79.0878 48.0159L72.0768 46.5159C70.5883 46.0804 69.2369 45.2693 68.1525 44.1605C67.0681 43.0518 66.2872 41.6827 65.8848 40.1849Z" fill="#1F1F39"/>
<path d="M86.145 41.2318C87.739 41.6188 87.945 43.8318 87.238 45.1018C86.236 46.8998 83.759 47.0818 83.759 47.0818L83.459 42.8258C83.459 42.8258 84.552 40.8448 86.145 41.2318Z" fill="#F9ACC0"/>
<path d="M70.1875 44.0093C70.4641 45.8981 71.065 47.725 71.9635 49.4093C72.3302 50.1108 72.8575 50.7157 73.5024 51.1747C74.1473 51.6336 74.8916 51.9337 75.6745 52.0503C75.7852 53.1924 75.8156 54.3409 75.7655 55.4873C75.6745 57.2633 75.6745 58.0593 75.6745 58.0593C76.3176 58.4857 77.0408 58.7765 77.8001 58.9141C78.5594 59.0516 79.3387 59.033 80.0905 58.8593C83.3685 58.2443 83.6185 56.8333 83.6185 56.8333C83.6185 56.8333 83.0035 55.0573 82.3895 53.1223C82.1151 52.4451 81.9386 51.7323 81.8655 51.0053C82.6977 50.4669 83.3884 49.7366 83.8795 48.8757C84.3706 48.0148 84.6477 47.0486 84.6875 46.0583C84.7724 44.2087 84.5652 42.3573 84.0735 40.5723" fill="#F9D2DD"/>
<path opacity="0.284" d="M73.3055 47.6117C72.8505 46.9237 71.8945 45.0117 71.8945 45.0117L72.5545 50.2927C73.3118 51.2362 74.3895 51.8683 75.5825 52.0687C75.6643 51.6477 75.6643 51.2148 75.5825 50.7937C75.3545 49.4277 73.7615 48.2897 73.3055 47.6117Z" fill="#F9ACC0"/>
<path d="M70.9156 44.1445C71.7156 44.1905 71.8716 44.8955 72.1446 45.6925C72.4176 46.4895 72.6686 48.1735 73.6446 49.2205C74.1351 49.6512 74.4998 50.2065 74.7001 50.8276C74.9005 51.4487 74.929 52.1125 74.7826 52.7485C74.2945 53.8095 73.5323 54.7211 72.5746 55.3895C72.5746 55.3895 64.9746 73.7375 62.5126 78.9735C60.0316 84.2095 58.3696 87.7155 53.8626 89.0355C52.7347 89.305 51.5591 89.3056 50.4309 89.0372C49.3026 88.7689 48.2532 88.2391 47.3674 87.4907C46.4815 86.7422 45.7839 85.796 45.331 84.7284C44.878 83.6608 44.6823 82.5017 44.7596 81.3445C44.7596 75.4945 54.9126 65.0905 54.9126 65.0905L66.6596 50.5875C66.2434 49.3033 66.096 47.9472 66.2266 46.6035C66.5906 45.1925 67.1146 45.0095 67.4596 44.9185C67.6288 44.8564 67.8145 44.8564 67.9836 44.9185C68.0736 44.7359 68.2124 44.5818 68.3847 44.4734C68.5571 44.365 68.7561 44.3065 68.9596 44.3045C69.1614 44.308 69.3566 44.3763 69.5165 44.4993C69.6764 44.6223 69.7925 44.7935 69.8476 44.9875C69.9183 44.7548 70.0585 44.5492 70.2494 44.3985C70.4403 44.2478 70.6728 44.1592 70.9156 44.1445V44.1445Z" fill="#F9D2DD"/>
<path d="M72.4869 55.4814C72.4778 55.4696 72.4711 55.456 72.4673 55.4415C72.4635 55.427 72.4627 55.4119 72.4648 55.3971C72.467 55.3822 72.4721 55.368 72.4798 55.3552C72.4876 55.3424 72.4978 55.3312 72.5099 55.3224C73.4463 54.6644 74.1922 53.7705 74.6719 52.7314C74.8131 52.1105 74.7839 51.463 74.5874 50.8574C74.391 50.2517 74.0346 49.7103 73.5559 49.2904C72.8832 48.4226 72.4232 47.4092 72.2129 46.3314C72.1449 46.1034 72.0989 45.8764 72.0309 45.7164L71.9849 45.5574C71.7579 44.8514 71.5759 44.2814 70.9159 44.2594C70.9007 44.2603 70.8855 44.2579 70.8713 44.2525C70.8571 44.2471 70.8442 44.2387 70.8334 44.228C70.8226 44.2172 70.8143 44.2043 70.8088 44.1901C70.8034 44.1758 70.8011 44.1606 70.8019 44.1454C70.8011 44.1302 70.8034 44.115 70.8088 44.1008C70.8143 44.0866 70.8226 44.0736 70.8334 44.0629C70.8442 44.0521 70.8571 44.0438 70.8713 44.0383C70.8855 44.0329 70.9007 44.0306 70.9159 44.0314C71.7359 44.0774 71.9629 44.7594 72.1909 45.4884L72.2369 45.6474C72.3049 45.8294 72.3509 46.0344 72.4189 46.2624C72.6189 47.3077 73.0633 48.2908 73.7159 49.1314C74.217 49.5802 74.5906 50.1533 74.7988 50.7929C75.0071 51.4325 75.0427 52.1157 74.9019 52.7734C74.411 53.865 73.6309 54.8014 72.6459 55.4814C72.6229 55.5274 72.5999 55.5274 72.5779 55.5274C72.5603 55.5271 72.543 55.5227 72.5272 55.5148C72.5115 55.5068 72.4977 55.4954 72.4869 55.4814Z" fill="white"/>
<path d="M75.6738 52.157C75.6968 52.544 75.8328 53.957 75.8558 55.298C76.589 55.0427 77.2739 54.6658 77.8818 54.183C78.6335 53.4963 79.2646 52.6885 79.7488 51.793C78.9003 52.1199 77.9932 52.2674 77.0848 52.226C76.6134 52.2526 76.1404 52.2295 75.6738 52.157V52.157Z" fill="#F9ACC0"/>
<path d="M70.7783 50.3373C70.3525 49.3358 70.0396 48.29 69.8453 47.2193C69.709 46.4772 69.663 45.7214 69.7083 44.9683C69.7081 44.9519 69.7119 44.9357 69.7195 44.9211C69.7271 44.9065 69.7381 44.894 69.7517 44.8847C69.7652 44.8754 69.7808 44.8696 69.7972 44.8678C69.8135 44.866 69.83 44.8682 69.8453 44.8743C69.8614 44.8746 69.8773 44.8788 69.8915 44.8866C69.9056 44.8944 69.9177 44.9055 69.9267 44.9189C69.9356 44.9324 69.9412 44.9478 69.9428 44.9639C69.9445 44.98 69.9422 44.9963 69.9363 45.0113C69.8905 45.7424 69.9362 46.4765 70.0723 47.1963C70.2672 48.2423 70.5726 49.2647 70.9833 50.2463C71.0063 50.3143 70.9833 50.3603 70.9153 50.4053H70.8903C70.8671 50.4054 70.8444 50.3991 70.8246 50.3871C70.8049 50.3751 70.7888 50.3579 70.7783 50.3373Z" fill="white"/>
<path d="M68.5027 50.5432C68.1359 49.5209 67.8916 48.4589 67.7747 47.3792C67.6813 46.6302 67.689 45.8721 67.7977 45.1252C67.8056 45.0962 67.8237 45.071 67.8487 45.0543C67.8737 45.0376 67.9038 45.0304 67.9337 45.0342C67.9628 45.0421 67.9881 45.0604 68.0049 45.0856C68.0216 45.1108 68.0286 45.1412 68.0247 45.1712C67.9328 45.8966 67.9328 46.6307 68.0247 47.3562C68.1382 48.4135 68.3751 49.4539 68.7307 50.4562C68.7365 50.4695 68.7393 50.484 68.7389 50.4986C68.7385 50.5131 68.735 50.5274 68.7285 50.5405C68.722 50.5535 68.7128 50.565 68.7014 50.5741C68.69 50.5832 68.6768 50.5897 68.6627 50.5932C68.6507 50.6063 68.6343 50.6145 68.6167 50.6162C68.5927 50.6162 68.5691 50.6094 68.5489 50.5964C68.5287 50.5835 68.5126 50.565 68.5027 50.5432Z" fill="white"/>
<path d="M98.1462 78.5469L94.9552 69.8919C94.9495 69.8786 94.9469 69.8643 94.9473 69.8498C94.9478 69.8354 94.9514 69.8212 94.9578 69.8083C94.9643 69.7953 94.9735 69.784 94.9848 69.7749C94.996 69.7659 95.0091 69.7594 95.0232 69.7559C95.0365 69.7503 95.0508 69.7476 95.0653 69.7481C95.0797 69.7486 95.0939 69.7521 95.1068 69.7586C95.1198 69.7651 95.1311 69.7743 95.1402 69.7855C95.1492 69.7968 95.1557 69.8099 95.1592 69.8239L98.3462 78.4739C98.352 78.4873 98.3548 78.5018 98.3544 78.5163C98.354 78.5309 98.3505 78.5452 98.344 78.5583C98.3375 78.5713 98.3283 78.5828 98.3169 78.5919C98.3055 78.601 98.2923 78.6075 98.2782 78.6109H98.2552C98.2329 78.6109 98.2111 78.605 98.192 78.5937C98.1728 78.5825 98.157 78.5663 98.1462 78.5469Z" fill="#DADAF7"/>
<path opacity="0.348" d="M44.7595 81.3886C44.685 82.5454 44.8827 83.7035 45.3367 84.7701C45.7907 85.8366 46.4884 86.7819 47.3739 87.53C48.2593 88.2782 49.3077 88.8083 50.4351 89.078C51.5625 89.3476 52.7374 89.3492 53.8655 89.0826C58.3725 87.7626 60.0345 84.2566 62.5155 79.0206C62.9705 78.0416 63.6085 76.6306 64.3365 74.9456L48.3795 73.0566C46.3985 75.9246 44.7595 79.0206 44.7595 81.3886Z" fill="#F9ACC0"/>
<path d="M41.6853 135.273C40.8331 135.273 39.9893 135.106 39.2019 134.78C38.4146 134.454 37.6992 133.976 37.0967 133.373C36.4941 132.771 36.0162 132.055 35.6903 131.268C35.3644 130.481 35.1969 129.637 35.1973 128.785L35.2203 76.9727L119.129 76.9957L119.106 128.808C119.109 129.66 118.942 130.505 118.617 131.293C118.292 132.082 117.814 132.798 117.211 133.401C116.608 134.004 115.892 134.481 115.104 134.807C114.316 135.132 113.471 135.298 112.618 135.296L41.6853 135.273Z" fill="#F4F3FD"/>
<path d="M119.13 76.8809V86.4879H35.2207V76.8809H119.13Z" fill="#F4F3FD"/>
<path d="M35.2207 83.6649V86.4879H37.5207L43.2567 76.8809H39.2727L35.2207 83.6649Z" fill="#DADAF7"/>
<path d="M42.1182 86.4879H46.1022L51.8182 76.8809H47.8322L42.1182 86.4879Z" fill="#DADAF7"/>
<path d="M50.3818 86.4879H54.3658L60.0818 76.8809H56.1188L50.3818 86.4879Z" fill="#DADAF7"/>
<path d="M58.9404 86.4879L62.9244 86.5109L68.6604 76.8809H64.6774L58.9404 86.4879Z" fill="#DADAF7"/>
<path d="M67.8193 86.5099H71.8033L77.5393 76.8809H73.5563L67.8193 86.5099Z" fill="#DADAF7"/>
<path d="M76.4014 86.5099H80.3624L86.1014 76.9039L82.1154 76.8809L76.4014 86.5099Z" fill="#DADAF7"/>
<path d="M84.665 86.5113H88.626L94.365 76.9043H90.379L84.665 86.5113Z" fill="#DADAF7"/>
<path d="M93.5654 86.5113H97.5494L103.285 76.9043H99.3024L93.5654 86.5113Z" fill="#DADAF7"/>
<path d="M102.147 86.5113H106.108L111.847 76.9043H107.861L102.147 86.5113Z" fill="#DADAF7"/>
<path d="M116.125 76.9043L110.411 86.5113H114.372L119.13 78.5433V76.9043H116.125Z" fill="#DADAF7"/>
<path d="M70.2559 119.517L70.5969 96.6172L90.2429 108.363L70.2559 119.517Z" fill="#DADAF7"/>
<path d="M137.819 113.6C145.855 113.6 148.974 105.177 142.531 101.284C141.363 100.593 140.008 100.281 138.655 100.391C137.301 100.501 136.015 101.028 134.973 101.899C134.973 101.899 134.973 94.6599 126.482 94.7989C117.968 94.9329 118.97 103.995 118.97 103.995C118.97 103.995 114.554 104.13 114.03 108.069C113.415 112.44 118.856 113.601 121.702 113.601L137.819 113.6Z" fill="#EAEAFF"/>
<path d="M22.3365 54.6629C15.1205 54.6629 12.3425 47.1049 18.1025 43.6449C19.1466 43.0224 20.3586 42.7406 21.5702 42.8384C22.7818 42.9363 23.9329 43.409 24.8635 44.1909C24.8635 44.1909 24.8405 37.7039 32.4665 37.8159C40.0925 37.9279 39.2075 46.0579 39.2075 46.0579C39.2075 46.0579 43.1455 46.1949 43.6465 49.6999C44.1925 53.6149 39.2985 54.6629 36.7715 54.6629H22.3365Z" fill="#EAEAFF"/>
</svg>
