<svg width="48" height="48" viewBox="0 0 48 48" fill="none" xmlns="http://www.w3.org/2000/svg">
<path d="M36 0H12C5.37258 0 0 5.37258 0 12V36C0 42.6274 5.37258 48 12 48H36C42.6274 48 48 42.6274 48 36V12C48 5.37258 42.6274 0 36 0Z" fill="#EAEAFF"/>
<path d="M24 33.165H15.666C15.4452 33.1648 15.2334 33.0769 15.0773 32.9208C14.9211 32.7646 14.8333 32.5529 14.833 32.332V23.999C14.833 22.186 15.3706 20.4136 16.3779 18.9061C17.3852 17.3986 18.8169 16.2237 20.4919 15.5298C22.167 14.836 24.0102 14.6545 25.7884 15.0082C27.5666 15.3619 29.2 16.235 30.4821 17.517C31.7641 18.799 32.6372 20.4324 32.9909 22.2106C33.3446 23.9889 33.163 25.832 32.4692 27.5071C31.7754 29.1821 30.6004 30.6138 29.0929 31.6211C27.5854 32.6284 25.8131 33.166 24 33.166V33.165ZM19.833 27.332C19.6119 27.332 19.3999 27.4198 19.2436 27.5762C19.0873 27.7325 18.9995 27.9445 18.9995 28.1655C18.9995 28.3866 19.0873 28.5986 19.2436 28.7549C19.3999 28.9112 19.6119 28.999 19.833 28.999H24C24.2211 28.999 24.4331 28.9112 24.5894 28.7549C24.7457 28.5986 24.8335 28.3866 24.8335 28.1655C24.8335 27.9445 24.7457 27.7325 24.5894 27.5762C24.4331 27.4198 24.2211 27.332 24 27.332H19.833ZM19.833 23.999C19.6119 23.999 19.3999 24.0868 19.2436 24.2432C19.0873 24.3995 18.9995 24.6115 18.9995 24.8325C18.9995 25.0536 19.0873 25.2656 19.2436 25.4219C19.3999 25.5782 19.6119 25.666 19.833 25.666H27.333C27.5541 25.666 27.7661 25.5782 27.9224 25.4219C28.0787 25.2656 28.1665 25.0536 28.1665 24.8325C28.1665 24.6115 28.0787 24.3995 27.9224 24.2432C27.7661 24.0868 27.5541 23.999 27.333 23.999H19.833ZM19.833 20.665C19.6119 20.665 19.3999 20.7529 19.2436 20.9092C19.0873 21.0655 18.9995 21.2775 18.9995 21.4985C18.9995 21.7196 19.0873 21.9316 19.2436 22.0879C19.3999 22.2442 19.6119 22.332 19.833 22.332H27.333C27.5541 22.332 27.7661 22.2442 27.9224 22.0879C28.0787 21.9316 28.1665 21.7196 28.1665 21.4985C28.1665 21.2775 28.0787 21.0655 27.9224 20.9092C27.7661 20.7529 27.5541 20.665 27.333 20.665H19.833Z" fill="#3D5CFF"/>
</svg>
