<svg width="48" height="48" viewBox="0 0 48 48" fill="none" xmlns="http://www.w3.org/2000/svg">
<path d="M36 0H12C5.37258 0 0 5.37258 0 12V36C0 42.6274 5.37258 48 12 48H36C42.6274 48 48 42.6274 48 36V12C48 5.37258 42.6274 0 36 0Z" fill="#FFEBF0"/>
<path d="M31.5 31.5H16.5C16.0581 31.4995 15.6344 31.3237 15.3218 31.0112C15.0093 30.6987 14.8335 30.275 14.833 29.833V18.167C14.8335 17.725 15.0093 17.3013 15.3218 16.9888C15.6344 16.6763 16.0581 16.5005 16.5 16.5H31.5C31.9419 16.5005 32.3655 16.6764 32.6778 16.9889C32.9902 17.3014 33.1657 17.7251 33.166 18.167V29.833C33.1657 30.2749 32.9902 30.6986 32.6778 31.0111C32.3655 31.3236 31.9419 31.4995 31.5 31.5ZM25.249 26.5C25.028 26.5 24.8159 26.5878 24.6596 26.7441C24.5033 26.9004 24.4155 27.1124 24.4155 27.3335C24.4155 27.5546 24.5033 27.7666 24.6596 27.9229C24.8159 28.0792 25.028 28.167 25.249 28.167H28.999C29.2201 28.167 29.4321 28.0792 29.5884 27.9229C29.7447 27.7666 29.8325 27.5546 29.8325 27.3335C29.8325 27.1124 29.7447 26.9004 29.5884 26.7441C29.4321 26.5878 29.2201 26.5 28.999 26.5H25.249ZM16.5 19.834V21.5H31.5V19.834H16.5Z" fill="#FF6905"/>
</svg>
