<?xml version="1.0"?>
<svg width="48" height="48" xmlns="http://www.w3.org/2000/svg" xmlns:svg="http://www.w3.org/2000/svg">
 <g class="layer">
  <title>Layer 1</title>
  <path d="m23.92,0c-13.2,0 -23.92,10.72 -23.92,23.92c0,13.2 10.72,23.92 23.92,23.92c13.2,0 23.92,-10.72 23.92,-23.92c0,-13.2 -10.72,-23.92 -23.92,-23.92zm9.57,26.31l-7.18,0l0,7.18c0,1.32 -1.08,2.39 -2.39,2.39c-1.32,0 -2.39,-1.08 -2.39,-2.39l0,-7.18l-7.18,0c-1.32,0 -2.39,-1.08 -2.39,-2.39c0,-1.32 1.08,-2.39 2.39,-2.39l7.18,0l0,-7.18c0,-1.32 1.08,-2.39 2.39,-2.39c1.32,0 2.39,1.08 2.39,2.39l0,7.18l7.18,0c1.32,0 2.39,1.08 2.39,2.39c0,1.32 -1.08,2.39 -2.39,2.39z" fill="#616161" id="svg_1"/>
 </g>
</svg>