<svg width="18" height="18" viewBox="0 0 18 18" fill="none" xmlns="http://www.w3.org/2000/svg">
<path d="M9.00001 0.666748C4.40001 0.666748 0.666672 4.40008 0.666672 9.00008C0.666672 13.6001 4.40001 17.3334 9.00001 17.3334C13.6 17.3334 17.3333 13.6001 17.3333 9.00008C17.3333 4.40008 13.6 0.666748 9.00001 0.666748ZM12.3333 9.83342H9.83334V12.3334C9.83334 12.7917 9.45834 13.1667 9.00001 13.1667C8.54167 13.1667 8.16667 12.7917 8.16667 12.3334V9.83342H5.66667C5.20834 9.83342 4.83334 9.45842 4.83334 9.00008C4.83334 8.54175 5.20834 8.16675 5.66667 8.16675H8.16667V5.66675C8.16667 5.20842 8.54167 4.83342 9.00001 4.83342C9.45834 4.83342 9.83334 5.20842 9.83334 5.66675V8.16675H12.3333C12.7917 8.16675 13.1667 8.54175 13.1667 9.00008C13.1667 9.45842 12.7917 9.83342 12.3333 9.83342Z" fill="#FAFAFA"/>
</svg>
