<svg width="52" height="74" viewBox="0 0 52 74" fill="none" xmlns="http://www.w3.org/2000/svg">
<path d="M13.0582 66.833C13.0582 64.039 9.01022 65.117 9.01022 63.39C9.01022 62.653 9.57122 62.301 10.2972 62.323C11.0892 62.345 11.5402 62.818 11.5842 63.335H12.9702C12.8602 62.026 11.8262 61.256 10.3632 61.256C8.80122 61.256 7.73422 62.092 7.73422 63.434C7.73422 66.25 11.7932 65.051 11.7932 66.899C11.7932 67.548 11.2982 68.021 10.4182 68.021C9.54922 68.021 9.10922 67.515 9.05422 66.888H7.71222C7.71222 68.241 8.88922 69.077 10.4182 69.077C12.1232 69.077 13.0582 67.977 13.0582 66.833ZM17.0899 63.896C18.0249 63.896 18.7619 64.49 18.7839 65.425H15.4289C15.5609 64.468 16.2429 63.896 17.0899 63.896ZM19.9279 67.196H18.5749C18.3439 67.669 17.9149 68.043 17.1449 68.043C16.2209 68.043 15.5059 67.438 15.4179 66.437H20.0489C20.0819 66.228 20.0929 66.03 20.0929 65.821C20.0929 64.039 18.8719 62.84 17.1449 62.84C15.3519 62.84 14.1199 64.061 14.1199 65.964C14.1199 67.867 15.4069 69.099 17.1449 69.099C18.6299 69.099 19.5869 68.252 19.9279 67.196ZM20.909 65.942C20.909 67.812 22.174 69.099 23.747 69.099C24.759 69.099 25.485 68.615 25.87 68.098V69H27.135V62.939H25.87V63.819C25.496 63.324 24.792 62.84 23.769 62.84C22.174 62.84 20.909 64.072 20.909 65.942ZM25.87 65.964C25.87 67.273 24.979 68.01 24.033 68.01C23.098 68.01 22.196 67.251 22.196 65.942C22.196 64.633 23.098 63.929 24.033 63.929C24.979 63.929 25.87 64.666 25.87 65.964ZM30.036 65.81C30.036 64.523 30.608 64.138 31.532 64.138H31.851V62.84C30.993 62.84 30.388 63.214 30.036 63.819V62.939H28.782V69H30.036V65.81ZM32.5857 65.964C32.5857 67.867 33.8177 69.099 35.5557 69.099C37.0407 69.099 38.0087 68.274 38.3497 67.086H36.9967C36.7657 67.713 36.3037 68.043 35.5557 68.043C34.5437 68.043 33.8727 67.295 33.8727 65.964C33.8727 64.644 34.5437 63.896 35.5557 63.896C36.3037 63.896 36.7877 64.27 36.9967 64.853H38.3497C38.0087 63.577 37.0407 62.84 35.5557 62.84C33.8177 62.84 32.5857 64.072 32.5857 65.964ZM39.5994 69H40.8534V65.612C40.8534 64.501 41.4584 63.929 42.3824 63.929C43.2954 63.929 43.9004 64.501 43.9004 65.612V69H45.1434V65.425C45.1434 63.731 44.0874 62.84 42.7344 62.84C41.9534 62.84 41.2714 63.137 40.8534 63.643V60.86H39.5994V69Z" fill="#B8B8D2"/>
<path opacity="0.05" d="M26 52C40.3594 52 52 40.3594 52 26C52 11.6406 40.3594 0 26 0C11.6406 0 0 11.6406 0 26C0 40.3594 11.6406 52 26 52Z" fill="#3D5CFF"/>
<path d="M33.3781 34.2106C33.2685 34.2109 33.1599 34.1895 33.0586 34.1477C32.9574 34.1058 32.8654 34.0442 32.7881 33.9666L29.7271 30.9056C28.1504 32.1803 26.1449 32.8015 24.1238 32.6413C22.1026 32.481 20.22 31.5515 18.864 30.0443C17.5079 28.537 16.7818 26.567 16.8353 24.5403C16.8887 22.5135 17.7177 20.5845 19.1514 19.1509C20.585 17.7172 22.514 16.8883 24.5407 16.8348C26.5675 16.7813 28.5375 17.5074 30.0447 18.8635C31.552 20.2195 32.4815 22.1022 32.6418 24.1233C32.802 26.1444 32.1808 28.15 30.9061 29.7266L33.9671 32.7876C34.0839 32.904 34.1635 33.0525 34.1959 33.2143C34.2282 33.376 34.2118 33.5437 34.1487 33.6962C34.0856 33.8486 33.9787 33.9788 33.8415 34.0704C33.7043 34.162 33.543 34.2108 33.3781 34.2106ZM24.7491 18.4996C23.5129 18.4996 22.3046 18.8661 21.2767 19.5529C20.2489 20.2396 19.4479 21.2158 18.9748 22.3578C18.5018 23.4998 18.378 24.7565 18.6192 25.9689C18.8603 27.1813 19.4556 28.2949 20.3296 29.169C21.2037 30.0431 22.3174 30.6383 23.5297 30.8795C24.7421 31.1206 25.9988 30.9969 27.1408 30.5238C28.2829 30.0508 29.259 29.2497 29.9457 28.2219C30.6325 27.1941 30.9991 25.9857 30.9991 24.7496C30.9972 23.0925 30.3381 21.5039 29.1664 20.3322C27.9947 19.1605 26.4061 18.5014 24.7491 18.4996Z" fill="#3D5CFF"/>
</svg>
