<?xml version="1.0" encoding="utf-8"?>
<svg width="64px" height="64px" viewBox="0 0 64 64" fill="none" xmlns="http://www.w3.org/2000/svg">
    <ellipse
        style="stroke: rgb(0, 0, 0); stroke-width: 0px; fill: rgb(31, 31, 57);" cx="32" rx="32"
        ry="32" cy="32" />
    <ellipse style="stroke: rgb(0, 0, 0); stroke-width: 0px; fill: rgb(33, 34, 67);" cx="32"
        rx="26" ry="26" cy="32" />
    <path
        d="M 39.546 40.378 C 39.436 40.379 39.327 40.357 39.226 40.315 C 39.125 40.274 39.033 40.212 38.956 40.134 L 35.895 37.073 C 34.318 38.348 32.312 38.969 30.291 38.809 C 28.27 38.649 26.388 37.719 25.031 36.212 C 23.675 34.705 22.949 32.735 23.003 30.708 C 23.056 28.681 23.885 26.752 25.319 25.319 C 26.752 23.885 28.681 23.056 30.708 23.003 C 32.735 22.949 34.705 23.675 36.212 25.031 C 37.719 26.387 38.649 28.27 38.809 30.291 C 38.969 32.312 38.348 34.318 37.074 35.894 L 40.135 38.955 C 40.251 39.072 40.331 39.22 40.363 39.382 C 40.396 39.544 40.379 39.711 40.316 39.864 C 40.253 40.016 40.146 40.147 40.009 40.238 C 39.872 40.33 39.71 40.379 39.546 40.378 Z M 30.917 24.667 C 29.68 24.667 28.472 25.034 27.444 25.721 C 26.416 26.407 25.615 27.383 25.142 28.526 C 24.669 29.668 24.545 30.924 24.787 32.137 C 25.028 33.349 25.623 34.463 26.497 35.337 C 27.371 36.211 28.485 36.806 29.697 37.047 C 30.91 37.288 32.166 37.165 33.308 36.692 C 34.45 36.219 35.426 35.417 36.113 34.39 C 36.8 33.362 37.167 32.153 37.167 30.917 C 37.165 29.26 36.506 27.672 35.334 26.5 C 34.162 25.328 32.574 24.669 30.917 24.667 Z"
        fill="#3D5CFF" style="transform-box: fill-box; transform-origin: 50% 50%;" />
</svg>