<?xml version="1.0" encoding="utf-8"?>
<svg width="52" height="74" viewBox="0 0 52 74" fill="none" xmlns="http://www.w3.org/2000/svg">
  <path opacity="0.05" d="M26 52C40.3594 52 52 40.3594 52 26C52 11.6406 40.3594 0 26 0C11.6406 0 0 11.6406 0 26C0 40.3594 11.6406 52 26 52Z" fill="#3D5CFF"/>
  <path d="M33.3781 34.2106C33.2685 34.2109 33.1599 34.1895 33.0586 34.1477C32.9574 34.1058 32.8654 34.0442 32.7881 33.9666L29.7271 30.9056C28.1504 32.1803 26.1449 32.8015 24.1238 32.6413C22.1026 32.481 20.22 31.5515 18.864 30.0443C17.5079 28.537 16.7818 26.567 16.8353 24.5403C16.8887 22.5135 17.7177 20.5845 19.1514 19.1509C20.585 17.7172 22.514 16.8883 24.5407 16.8348C26.5675 16.7813 28.5375 17.5074 30.0447 18.8635C31.552 20.2195 32.4815 22.1022 32.6418 24.1233C32.802 26.1444 32.1808 28.15 30.9061 29.7266L33.9671 32.7876C34.0839 32.904 34.1635 33.0525 34.1959 33.2143C34.2282 33.376 34.2118 33.5437 34.1487 33.6962C34.0856 33.8486 33.9787 33.9788 33.8415 34.0704C33.7043 34.162 33.543 34.2108 33.3781 34.2106ZM24.7491 18.4996C23.5129 18.4996 22.3046 18.8661 21.2767 19.5529C20.2489 20.2396 19.4479 21.2158 18.9748 22.3578C18.5018 23.4998 18.378 24.7565 18.6192 25.9689C18.8603 27.1813 19.4556 28.2949 20.3296 29.169C21.2037 30.0431 22.3174 30.6383 23.5297 30.8795C24.7421 31.1206 25.9988 30.9969 27.1408 30.5238C28.2829 30.0508 29.259 29.2497 29.9457 28.2219C30.6325 27.1941 30.9991 25.9857 30.9991 24.7496C30.9972 23.0925 30.3381 21.5039 29.1664 20.3322C27.9947 19.1605 26.4061 18.5014 24.7491 18.4996Z" fill="#3D5CFF"/>
</svg>