<?xml version="1.0"?>
<svg width="20" height="18" xmlns="http://www.w3.org/2000/svg" xmlns:svg="http://www.w3.org/2000/svg">
 <g class="layer">
  <title>Layer 1</title>
  <path d="m15.14,17.75c-0.13,0 -0.27,-0.03 -0.39,-0.1l-4.75,-2.53l-4.75,2.53c-0.14,0.07 -0.3,0.11 -0.45,0.1c-0.16,-0.01 -0.31,-0.07 -0.43,-0.16c-0.13,-0.09 -0.23,-0.22 -0.29,-0.36c-0.05,-0.15 -0.07,-0.31 -0.04,-0.46l0.92,-5.26l-3.88,-3.79c-0.11,-0.11 -0.19,-0.25 -0.22,-0.4c-0.04,-0.15 -0.03,-0.31 0.02,-0.46c0.04,-0.14 0.13,-0.28 0.25,-0.38c0.12,-0.1 0.26,-0.16 0.42,-0.18l5.35,-0.78l2.35,-4.8c0.07,-0.14 0.18,-0.26 0.31,-0.34c0.13,-0.08 0.28,-0.13 0.44,-0.13c0.15,0 0.31,0.05 0.44,0.13c0.13,0.08 0.24,0.2 0.31,0.34l2.38,4.8l5.33,0.78c0.15,0.02 0.29,0.08 0.41,0.18c0.12,0.1 0.21,0.24 0.26,0.38c0.05,0.15 0.05,0.31 0.01,0.46c-0.03,0.15 -0.11,0.29 -0.22,0.4l-3.87,3.79l0.92,5.26c0.02,0.16 0.01,0.32 -0.05,0.46c-0.06,0.14 -0.16,0.27 -0.28,0.36c-0.15,0.11 -0.32,0.16 -0.5,0.16z" fill="#FF6905" id="svg_1"/>
 </g>
</svg>